<svg width="32" height="32" viewBox="0 0 32 32" fill="none" xmlns="http://www.w3.org/2000/svg">
<path fill-rule="evenodd" clip-rule="evenodd" d="M19.76 5.33333H25.3333C26.8 5.33333 28 6.53333 28 8V26.6667C28 28.1333 26.8 29.3333 25.3333 29.3333H6.66667C6.48 29.3333 6.30667 29.32 6.13333 29.2933C5.61333 29.1867 5.14667 28.92 4.78667 28.56C4.54667 28.3067 4.34667 28.0267 4.21333 27.7067C4.08 27.3867 4 27.0267 4 26.6667V8C4 7.62666 4.08 7.28 4.21333 6.97333C4.34667 6.65333 4.54667 6.36 4.78667 6.12C5.14667 5.76 5.61333 5.49333 6.13333 5.38666C6.30667 5.34666 6.48 5.33333 6.66667 5.33333H12.24C12.8 3.78666 14.2667 2.66666 16 2.66666C17.7333 2.66666 19.2 3.78666 19.76 5.33333ZM9.33333 13.3333V10.6667H22.6667V13.3333H9.33333ZM22.6667 18.6667V16H9.33333V18.6667H22.6667ZM18.6667 21.3333H9.33333V24H18.6667V21.3333ZM16 5C16.5467 5 17 5.45333 17 6C17 6.54666 16.5467 7 16 7C15.4533 7 15 6.54666 15 6C15 5.45333 15.4533 5 16 5ZM6.66667 26.6667H25.3333V8H6.66667V26.6667Z" fill="white"/>
</svg>
