<svg width="32" height="32" viewBox="0 0 32 32" fill="none" xmlns="http://www.w3.org/2000/svg">
<path fill-rule="evenodd" clip-rule="evenodd" d="M2.66666 16C2.66666 8.64 8.63999 2.66666 16 2.66666C23.36 2.66666 29.3333 8.64 29.3333 16C29.3333 23.36 23.36 29.3333 16 29.3333C8.63999 29.3333 2.66666 23.36 2.66666 16ZM17.3333 21.3333V24H14.6667V21.3333H17.3333ZM16 26.6667C10.12 26.6667 5.33332 21.88 5.33332 16C5.33332 10.12 10.12 5.33333 16 5.33333C21.88 5.33333 26.6667 10.12 26.6667 16C26.6667 21.88 21.88 26.6667 16 26.6667ZM10.6667 13.3333C10.6667 10.3867 13.0533 8 16 8C18.9467 8 21.3333 10.3867 21.3333 13.3333C21.3333 15.0439 20.28 15.9644 19.2543 16.8607C18.2813 17.711 17.3333 18.5395 17.3333 20H14.6667C14.6667 17.5716 15.9228 16.6088 17.0272 15.7622C17.8936 15.0981 18.6667 14.5056 18.6667 13.3333C18.6667 11.8667 17.4667 10.6667 16 10.6667C14.5333 10.6667 13.3333 11.8667 13.3333 13.3333H10.6667Z" fill="white"/>
</svg>
