<svg width="32" height="32" viewBox="0 0 32 32" fill="none" xmlns="http://www.w3.org/2000/svg">
<path fill-rule="evenodd" clip-rule="evenodd" d="M12 16C14.5733 16 16.6667 13.9067 16.6667 11.3333C16.6667 8.76 14.5733 6.66667 12 6.66667C9.42666 6.66667 7.33332 8.76 7.33332 11.3333C7.33332 13.9067 9.42666 16 12 16ZM12 9.33333C13.1067 9.33333 14 10.2267 14 11.3333C14 12.44 13.1067 13.3333 12 13.3333C10.8933 13.3333 9.99999 12.44 9.99999 11.3333C9.99999 10.2267 10.8933 9.33333 12 9.33333ZM6.35999 22.6667H12.0667C12.0267 22.88 12 23.1067 12 23.3333V25.3333H2.66666V23.3333C2.66666 20.2267 8.87999 18.6667 12 18.6667C12.7467 18.6667 13.6667 18.76 14.64 18.9333C13.6933 19.5733 12.9067 20.3733 12.4533 21.3467C12.38 21.3467 12.3033 21.3433 12.2267 21.34C12.15 21.3367 12.0733 21.3333 12 21.3333C9.95999 21.3333 7.67999 22 6.35999 22.6667ZM22 19.3333C19.5467 19.3333 14.6667 20.68 14.6667 23.3333V25.3333H29.3333V23.3333C29.3333 20.68 24.4533 19.3333 22 19.3333ZM25.3333 14C25.3333 15.2533 24.6267 16.3333 23.6133 16.9067C23.1333 17.1733 22.5867 17.3333 22 17.3333C21.4133 17.3333 20.8667 17.1733 20.3867 16.9067C19.3733 16.3333 18.6667 15.2533 18.6667 14C18.6667 12.16 20.16 10.6667 22 10.6667C23.84 10.6667 25.3333 12.16 25.3333 14Z" fill="white"/>
</svg>
